<?xml version="1.0" encoding="utf-8"?>
<!-- Generator: Adobe Illustrator 27.0.0, SVG Export Plug-In . SVG Version: 6.00 Build 0)  -->
<svg version="1.1" id="Layer_1" xmlns="http://www.w3.org/2000/svg" xmlns:xlink="http://www.w3.org/1999/xlink" x="0px" y="0px"
	 viewBox="0 0 512 512" style="enable-background:new 0 0 512 512;" xml:space="preserve">
<path d="M54.6,356.5c15.5,43,131.9,93.7,232.1,119.2l22.8-67.2c-56.6-20.3-114.7-47.4-132.7-95.7c-16.6-48.8,11.1-106.5,42.1-158.1
	l-60.2-37.6C97.3,200.4,39.4,313.3,54.6,356.5L54.6,356.5z M306.7,480.5c5.5,1.2,10.9,2.4,16.2,3.4l21.5-63.5
	c-5.1-1.7-10.3-3.4-15.6-5.2L306.7,480.5L306.7,480.5z M171.1,100.8l58.5,36.5c2.9-4.7,5.9-9.3,8.7-13.9l-56.9-35.5
	C178,92,174.5,96.3,171.1,100.8L171.1,100.8z M343.2,487.6c49.3,7.9,86.7,6.2,92.1-10.8c6.8-21.4-26.5-34.8-71.5-49.9L343.2,487.6z
	 M194.8,72.1l54.4,33.9c25.2-40.2,42.5-71.7,23.6-83.9C257.9,12.4,227.9,34.7,194.8,72.1L194.8,72.1z"/>
</svg>
